<?xml version="1.0" encoding="UTF-8" standalone="no"?>
<!-- Created with Inkscape (http://www.inkscape.org/) -->

<svg
   xmlns:dc="http://purl.org/dc/elements/1.1/"
   xmlns:cc="http://creativecommons.org/ns#"
   xmlns:rdf="http://www.w3.org/1999/02/22-rdf-syntax-ns#"
   xmlns:svg="http://www.w3.org/2000/svg"
   xmlns="http://www.w3.org/2000/svg"
   xmlns:sodipodi="http://sodipodi.sourceforge.net/DTD/sodipodi-0.dtd"
   xmlns:inkscape="http://www.inkscape.org/namespaces/inkscape"
   width="402.48508"
   height="442.46667"
   id="svg4376"
   version="1.1"
   inkscape:version="0.92.1 r15371"
   sodipodi:docname="free_cat3.svg">
  <defs
     id="defs4378">
    <inkscape:path-effect
       is_visible="true"
       id="path-effect40"
       effect="spiro" />
    <inkscape:path-effect
       effect="spiro"
       id="path-effect4195"
       is_visible="true" />
    <inkscape:path-effect
       effect="spiro"
       id="path-effect4233"
       is_visible="true" />
    <inkscape:path-effect
       is_visible="true"
       id="path-effect4237"
       effect="spiro" />
    <inkscape:path-effect
       effect="spiro"
       id="path-effect4345"
       is_visible="true" />
    <inkscape:path-effect
       effect="spiro"
       id="path-effect4249"
       is_visible="true" />
  </defs>
  <sodipodi:namedview
     id="base"
     pagecolor="#ffffff"
     bordercolor="#666666"
     borderopacity="1.0"
     inkscape:pageopacity="0.0"
     inkscape:pageshadow="2"
     inkscape:zoom="0.77472527"
     inkscape:cx="46.368966"
     inkscape:cy="303.66761"
     inkscape:current-layer="layer1"
     inkscape:document-units="px"
     showgrid="false"
     inkscape:window-width="1920"
     inkscape:window-height="1017"
     inkscape:window-x="-8"
     inkscape:window-y="-8"
     inkscape:window-maximized="1"
     fit-margin-top="0"
     fit-margin-left="0"
     fit-margin-right="0"
     fit-margin-bottom="0" />
  <metadata
     id="metadata4381">
    <rdf:RDF>
      <cc:Work
         rdf:about="">
        <dc:format>image/svg+xml</dc:format>
        <dc:type
           rdf:resource="http://purl.org/dc/dcmitype/StillImage" />
        <dc:title></dc:title>
      </cc:Work>
    </rdf:RDF>
  </metadata>
  <g
     id="layer1"
     inkscape:label="Layer 1"
     inkscape:groupmode="layer"
     transform="translate(-127.12749,-29.938517)">
    <g
       transform="matrix(2.4686473,0,0,2.4649931,-191.67271,-1179.95)"
       id="g4259">
      <g
         id="g4210">
        <g
           id="g4201">
          <g
             transform="rotate(-2.2818604,602.47561,2570.8645)"
             id="g4172">
            <path
               style="fill:#000000;fill-opacity:1;stroke:#000000;stroke-width:1.06666672px;stroke-linecap:butt;stroke-linejoin:miter;stroke-opacity:1"
               d="m 308.58251,534.71773 c 1.01098,-2.73159 0.90075,-4.52697 1.37683,-7.40047 0.56455,-3.40753 -0.28963,-6.0192 -0.51631,-9.46573 -0.17169,-2.61039 -0.57537,-7.78704 -1.20473,-10.32624 l -2.58157,-8.4331 -6.53995,-10.84255 -4.64681,-5.50733 -4.6468,-3.78629 c -0.72671,-0.57816 -1.5424,-1.04427 -2.40946,-1.37683 -1.31087,-0.50278 -2.77101,-0.69485 -4.1305,-0.3442 -1.10818,0.28582 -2.1075,0.9209 -2.92577,1.72103 -0.89332,0.87352 -1.58374,1.94496 -2.06525,3.09788 -0.92678,2.21906 -0.55765,5.53111 -0.86052,7.91679 -0.36485,2.87392 0.34636,7.20749 0.11306,10.09507 -0.36077,4.46523 -0.45288,6.42497 -0.28516,10.90161 0.0709,1.89274 0.59206,6.19728 0.68842,8.0889 0.15541,3.05047 0.2042,5.73886 0.51631,8.7773 0.3031,2.95073 1.05085,6.27735 1.89314,9.12151 0.87463,2.95336 2.13465,4.24141 4.64682,6.02364 2.40011,1.70273 3.83652,1.6119 6.71205,2.23735 1.75745,0.38227 3.52211,0.7916 5.31954,0.85471 1.79744,0.0631 3.65482,-0.24383 5.17881,-1.19892 0.96544,-0.60504 1.76441,-1.44901 2.42642,-2.37633 0.662,-0.92731 1.1939,-1.94013 1.70407,-2.95889 0.79312,-1.58375 1.53934,-3.191 2.23736,-4.81891"
               id="path4162"
               inkscape:connector-curvature="0"
               sodipodi:nodetypes="csscccccsssssscssssscsssc" />
            <path
               style="fill:#e9eed5;fill-opacity:1;stroke:#000000;stroke-width:1.09591508px;stroke-linecap:butt;stroke-linejoin:miter;stroke-opacity:1"
               d="m 295.6936,518.43369 c -1.32263,0.68667 -2.79802,1.76046 -4.07942,2.51705 -1.26291,0.74564 -1.62502,0.63694 -2.84412,1.44825 -0.56591,0.39712 -1.15898,0.75792 -1.77396,1.07923 -0.52277,0.27311 -1.06649,0.51947 -1.64509,0.64903 -0.5786,0.12955 -1.19786,0.13684 -1.75566,-0.0606 -0.58249,-0.2062 -1.06725,-0.62523 -1.42392,-1.117 -0.35665,-0.49176 -0.21389,-8.72446 -0.13475,-4.77331 0.0524,2.59115 -0.97801,-9.3442 -0.24441,-11.83635 l -0.065,-20.54651 c 0.005,-0.29759 0.0192,-0.59605 0.075,-0.88872 0.0557,-0.29271 0.14831,-0.57748 0.24823,-0.85889 0.23006,-0.64758 0.5084,-1.31194 1.04137,-1.76155 0.35783,-0.30183 0.81392,-0.48674 1.28407,-0.54785 0.4701,-0.0611 0.95322,-10e-4 1.40207,0.14741 0.80625,0.26708 1.49214,0.81246 2.02594,1.45621 0.53378,0.64377 0.92698,1.38536 1.28151,2.13643 1.19,2.52103 1.98174,5.19941 3.03462,7.77712 1.22854,3.00785 2.81474,5.88428 3.77798,8.98165 0.61446,1.97582 0.96806,4.02027 1.20314,6.07131 0.22521,1.96506 0.34274,3.95264 0.1222,5.9182 -0.13996,1.24772 -0.95117,2.66555 -1.35734,3.85726"
               id="path4167"
               inkscape:connector-curvature="0"
               sodipodi:nodetypes="cscssccsccssscsssssssc" />
          </g>
          <g
             transform="matrix(-0.99669831,-0.08119412,-0.08119412,0.99669831,588.95161,39.892932)"
             id="g4176">
            <g
               id="g4182">
              <path
                 style="fill:#000000;fill-opacity:1;stroke:#000000;stroke-width:1.06666672px;stroke-linecap:butt;stroke-linejoin:miter;stroke-opacity:1"
                 d="m 308.58251,534.71773 c 1.01098,-2.73159 0.90075,-4.52697 1.37683,-7.40047 0.56455,-3.40753 -0.28963,-6.0192 -0.51631,-9.46573 -0.17169,-2.61039 -0.57537,-7.78704 -1.20473,-10.32624 l -2.58157,-8.4331 -6.53995,-10.84255 -4.64681,-5.50733 -4.6468,-3.78629 c -0.72671,-0.57816 -1.5424,-1.04427 -2.40946,-1.37683 -1.31087,-0.50278 -2.77101,-0.69485 -4.1305,-0.3442 -1.10818,0.28582 -2.1075,0.9209 -2.92577,1.72103 -0.89332,0.87352 -1.58374,1.94496 -2.06525,3.09788 -0.92678,2.21906 -0.55765,5.53111 -0.86052,7.91679 -0.36485,2.87392 0.34636,7.20749 0.11306,10.09507 -0.36077,4.46523 -0.45288,6.42497 -0.28516,10.90161 0.0709,1.89274 0.59206,6.19728 0.68842,8.0889 0.15541,3.05047 0.2042,5.73886 0.51631,8.7773 0.3031,2.95073 1.05085,6.27735 1.89314,9.12151 0.87463,2.95336 2.13465,4.24141 4.64682,6.02364 2.40011,1.70273 3.83652,1.6119 6.71205,2.23735 1.75745,0.38227 3.52211,0.7916 5.31954,0.85471 1.79744,0.0631 3.65482,-0.24383 5.17881,-1.19892 0.96544,-0.60504 1.76441,-1.44901 2.42642,-2.37633 0.662,-0.92731 1.1939,-1.94013 1.70407,-2.95889 0.79312,-1.58375 1.53934,-3.191 2.23736,-4.81891"
                 id="path4178"
                 inkscape:connector-curvature="0"
                 sodipodi:nodetypes="csscccccsssssscssssscsssc" />
              <path
                 style="fill:#e9eed5;fill-opacity:1;stroke:#000000;stroke-width:1.09591508px;stroke-linecap:butt;stroke-linejoin:miter;stroke-opacity:1"
                 d="m 294.31135,518.35516 c -1.32264,0.68667 -2.79802,1.76047 -4.07942,2.51705 -1.26291,0.74565 -1.62502,0.63694 -2.84412,1.44825 -0.56591,0.39712 -1.15898,0.75792 -1.77396,1.07923 -0.52277,0.27311 -1.06649,0.51947 -1.64509,0.64904 -0.57861,0.12954 -1.19786,0.13683 -1.75566,-0.0606 -0.58249,-0.2062 -1.06725,-0.62523 -1.42392,-1.11699 -0.35665,-0.49177 -0.21389,-8.72447 -0.13475,-4.77332 0.0524,2.59115 -0.97801,-9.3442 -0.24441,-11.83635 l -0.065,-20.5465 c 0.005,-0.29759 0.0192,-0.59606 0.075,-0.88873 0.0557,-0.2927 0.14831,-0.57748 0.24823,-0.85889 0.23006,-0.64757 0.5084,-1.31194 1.04137,-1.76155 0.35783,-0.30183 0.81392,-0.48674 1.28407,-0.54785 0.4701,-0.0611 0.95322,-0.001 1.40207,0.14742 0.80625,0.26707 1.49213,0.81245 2.02594,1.4562 0.53378,0.64377 0.92698,1.38536 1.28151,2.13644 1.19,2.52102 1.98174,5.1994 3.03462,7.77712 1.22854,3.00785 2.81474,5.88427 3.77798,8.98164 0.61446,1.97582 0.96806,4.02028 1.20314,6.07132 0.22521,1.96505 0.34274,3.95264 0.1222,5.91819 -0.13996,1.24773 -0.95118,2.66555 -1.35734,3.85726"
                 id="path4180"
                 inkscape:connector-curvature="0"
                 sodipodi:nodetypes="cscssccsccssscsssssssc" />
            </g>
          </g>
        </g>
        <g
           id="g4197"
           transform="translate(-3.8942694,-1.9471347)">
          <path
             inkscape:connector-curvature="0"
             inkscape:original-d="m 220.513,633.93931 c -10.46584,-10.46585 -7.54514,-11.9262 -16.79403,-18.98456 -9.24889,-7.05837 -9.49228,-8.51872 -17.7676,-11.92621 -8.27533,-3.40747 -4.13766,-2.6773 -17.7676,-4.86783 -13.62996,-2.19052 -14.60351,-5.11123 -22.63545,-2.43392 -8.03194,2.67732 -9.49228,-3.89427 -11.19602,5.11124 -1.70375,9.00549 -1.70375,5.84139 0.48678,7.54514 2.19053,1.70374 3.89426,4.38105 8.03193,4.38105 4.13766,0 0.24339,-0.48678 8.51872,-1.21696 8.27532,-0.73017 3.40748,-4.86784 14.8469,-0.73017 11.43941,4.13766 13.62994,3.65088 18.98456,8.27532 5.35462,4.62444 2.43391,-1.46036 9.73567,9.97907 7.30175,11.43941 1.94714,9.49227 10.70924,13.38655 8.76211,3.89427 9.2489,3.16409 12.1696,-0.48679 2.92069,-3.65088 2.6773,-8.03193 2.6773,-8.03193 z"
             inkscape:path-effect="#path-effect4195"
             id="path4193"
             d="m 220.513,633.93931 c -4.85159,-6.93948 -10.49824,-13.32265 -16.79403,-18.98456 -5.32777,-4.79136 -11.18202,-9.10266 -17.7676,-11.92621 -5.65528,-2.42469 -11.7257,-3.70307 -17.7676,-4.86783 -7.46861,-1.4398 -15.03522,-2.73344 -22.63545,-2.43392 -2.15195,0.0848 -4.32914,0.3043 -6.34265,1.06838 -2.01351,0.76408 -3.86733,2.12824 -4.85337,4.04286 -0.60409,1.17297 -0.86131,2.51717 -0.76546,3.83307 0.0959,1.3159 0.54098,2.60082 1.25224,3.71207 0.85317,1.33298 2.08271,2.41135 3.48354,3.14784 1.40082,0.7365 2.96873,1.13623 4.54839,1.23321 2.87297,0.17637 5.70161,-0.62625 8.51872,-1.21696 4.87385,-1.02199 9.91518,-1.42082 14.8469,-0.73017 6.91105,0.96784 13.42034,4.06358 18.98456,8.27532 3.72069,2.81631 7.06834,6.15016 9.73567,9.97907 1.64877,2.36679 3.03095,4.91004 4.66699,7.28565 1.63604,2.37561 3.56884,4.61686 6.04225,6.1009 1.86189,1.11713 4.01912,1.77628 6.19012,1.73935 2.171,-0.0369 4.34751,-0.79391 5.97948,-2.22614 1.11164,-0.97558 1.9581,-2.25046 2.4258,-3.65358 0.46771,-1.40313 0.55547,-2.9309 0.2515,-4.37835 z"
             style="fill:#000000;fill-opacity:1;stroke:#000000;stroke-width:1.06666672px;stroke-linecap:butt;stroke-linejoin:miter;stroke-opacity:1" />
          <path
             sodipodi:nodetypes="csssssssssscsssssssssc"
             inkscape:connector-curvature="0"
             id="path4186"
             d="m 239.49757,573.57813 c -4.30666,1.86144 -8.22606,4.61337 -11.43942,8.03194 -2.47302,2.63096 -4.51933,5.63706 -6.32819,8.7621 -2.0744,3.58382 -3.84873,7.33867 -5.35461,11.19602 -1.5304,3.92017 -3.75634,8.91553 -5.11123,12.89978 -1.88361,5.53898 -2.99298,10.03512 -4.86784,15.57708 -2.15167,6.3602 -2.58613,14.60186 -1.21695,21.17508 1.05772,5.07795 2.54445,8.13538 6.08479,11.92621 2.44677,2.61989 1.80086,2.76857 4.86784,4.62443 5.25311,3.17871 8.30136,4.66775 14.3601,3.67236 3.21317,-0.5279 17.83596,-0.3626 21.66213,-0.27536 4.92252,0.11224 5.07598,0.58203 8.03169,-1.20647 2.83945,-0.55646 3.62872,-1.63441 6.0848,-3.16409 3.87307,-2.41218 3.3987,-5.99321 5.11122,-10.22246 1.76283,-4.35346 1.93831,-9.20089 1.46035,-13.87333 -0.48159,-4.70784 -1.59758,-9.32965 -2.9207,-13.87333 -1.48522,-5.1003 -3.23421,-10.12082 -5.11122,-15.0903 -2.81315,-7.4479 -5.91787,-14.7913 -9.49229,-21.90527 -2.07004,-4.11987 -4.29594,-8.15961 -6.57158,-12.16959 -0.61987,-1.09228 -1.24658,-2.18709 -2.02451,-3.17306 -0.77793,-0.98598 -1.71853,-1.86624 -2.84333,-2.42495 -1.34325,-0.66721 -2.9241,-0.84287 -4.38105,-0.48679"
             style="fill:#00000a;fill-opacity:1;stroke:#000000;stroke-width:1.06666672px;stroke-linecap:butt;stroke-linejoin:miter;stroke-opacity:1" />
        </g>
        <ellipse
           style="color:#000000;display:inline;overflow:visible;visibility:visible;fill:#000000;fill-opacity:1;fill-rule:nonzero;stroke:#000000;stroke-width:1.08332324;stroke-linecap:butt;stroke-linejoin:miter;stroke-miterlimit:4;stroke-dasharray:none;stroke-dashoffset:0;stroke-opacity:1;marker:none;enable-background:accumulate"
           id="path4136"
           cx="233.46503"
           cy="556.53632"
           rx="37.243607"
           ry="25.043055" />
        <g
           id="g4154"
           transform="translate(0.80703861,-0.93687426)">
          <g
             id="g4144">
            <path
               style="color:#000000;display:inline;overflow:visible;visibility:visible;fill:#f0ecd1;fill-opacity:0.94039731;fill-rule:nonzero;stroke:#000000;stroke-width:1.06666672;stroke-linecap:butt;stroke-linejoin:miter;stroke-miterlimit:4;stroke-dashoffset:0;stroke-opacity:1;marker:none;enable-background:accumulate"
               d="m 231.25177,557.90026 c -0.17548,6.44984 -6.32027,11.6828 -14.11673,11.6828 -7.79645,0 -14.81707,-5.26869 -14.11673,-11.6828 0.54307,-4.97365 2.13487,-8.98759 5.73623,-10.80127 2.17423,-1.09498 4.87663,-1.74828 7.51998,-1.56997 2.19065,0.14778 5.71333,-0.16735 7.44274,0.41008 5.34901,1.78598 7.67215,6.90169 7.53451,11.96116 z"
               id="path4138"
               inkscape:connector-curvature="0"
               sodipodi:nodetypes="sssssss" />
            <path
               style="color:#000000;display:inline;overflow:visible;visibility:visible;fill:#000000;fill-opacity:0.94701987;fill-rule:nonzero;stroke:#000000;stroke-width:0.9516328;stroke-linecap:butt;stroke-linejoin:miter;stroke-miterlimit:4;stroke-dashoffset:0;stroke-opacity:1;marker:none;enable-background:accumulate"
               d="m 223.44853,556.07127 c 0,2.59813 -1.31268,4.86379 -3.8438,4.86379 -2.53112,0 -3.8438,-1.94672 -3.8438,-4.54485 0,-2.59812 1.31268,-4.86379 3.8438,-4.86379 2.53112,0 3.8438,1.94672 3.8438,4.54485 z"
               id="path4141"
               inkscape:connector-curvature="0"
               sodipodi:nodetypes="sssss" />
          </g>
          <g
             transform="matrix(-1,0,0,1,466.41099,0)"
             id="g4148">
            <path
               sodipodi:nodetypes="sssssss"
               inkscape:connector-curvature="0"
               id="path4150"
               d="m 231.25177,557.90026 c -0.17548,6.44984 -6.32027,11.6828 -14.11673,11.6828 -7.79645,0 -14.81707,-5.26869 -14.11673,-11.6828 0.54307,-4.97365 2.13487,-8.98759 5.73623,-10.80127 2.17423,-1.09498 4.87663,-1.74828 7.51998,-1.56997 2.19065,0.14778 5.71333,-0.16735 7.44274,0.41008 5.34901,1.78598 7.67215,6.90169 7.53451,11.96116 z"
               style="color:#000000;display:inline;overflow:visible;visibility:visible;fill:#f0ecd1;fill-opacity:0.94039731;fill-rule:nonzero;stroke:#000000;stroke-width:1.06666672;stroke-linecap:butt;stroke-linejoin:miter;stroke-miterlimit:4;stroke-dashoffset:0;stroke-opacity:1;marker:none;enable-background:accumulate" />
            <path
               sodipodi:nodetypes="sssss"
               inkscape:connector-curvature="0"
               id="path4152"
               d="m 223.44853,556.07127 c 0,2.59813 -1.31268,4.86379 -3.8438,4.86379 -2.53112,0 -3.8438,-1.94672 -3.8438,-4.54485 0,-2.59812 1.31268,-4.86379 3.8438,-4.86379 2.53112,0 3.8438,1.94672 3.8438,4.54485 z"
               style="color:#000000;display:inline;overflow:visible;visibility:visible;fill:#000000;fill-opacity:0.94701987;fill-rule:nonzero;stroke:#000000;stroke-width:0.9516328;stroke-linecap:butt;stroke-linejoin:miter;stroke-miterlimit:4;stroke-dashoffset:0;stroke-opacity:1;marker:none;enable-background:accumulate" />
          </g>
        </g>
      </g>
      <g
         id="g4251">
        <g
           id="g4239">
          <path
             inkscape:connector-curvature="0"
             inkscape:original-d="m 174.3046,563.87851 29.37833,0.90148"
             inkscape:path-effect="#path-effect40"
             id="path4231"
             d="m 174.3046,563.87851 29.37833,0.90148"
             style="fill:none;stroke:#000000;stroke-width:2.11232519;stroke-linecap:butt;stroke-linejoin:miter;stroke-miterlimit:9;stroke-dasharray:none;stroke-opacity:1" />
          <path
             style="fill:none;stroke:#000000;stroke-width:2.11232519;stroke-linecap:butt;stroke-linejoin:miter;stroke-miterlimit:9;stroke-dasharray:none;stroke-opacity:1"
             d="m 181.36297,572.39722 29.37833,0.90148"
             id="path4235"
             inkscape:path-effect="#path-effect4237"
             inkscape:original-d="m 181.36297,572.39722 29.37833,0.90148"
             inkscape:connector-curvature="0" />
        </g>
        <g
           id="g4243"
           transform="matrix(0.98876706,0.14946472,0.14946472,-0.98876706,0.4186743,1106.8827)">
          <path
             style="fill:none;stroke:#000000;stroke-width:2.11232519;stroke-linecap:butt;stroke-linejoin:miter;stroke-miterlimit:9;stroke-dasharray:none;stroke-opacity:1"
             d="m 174.3046,563.87851 29.37833,0.90148"
             id="path4245"
             inkscape:path-effect="#path-effect4233"
             inkscape:original-d="m 174.3046,563.87851 29.37833,0.90148"
             inkscape:connector-curvature="0" />
          <path
             inkscape:connector-curvature="0"
             inkscape:original-d="m 179.26762,569.32978 29.19241,3.42089"
             inkscape:path-effect="#path-effect4249"
             id="path4247"
             d="m 179.26762,569.32978 29.19241,3.42089"
             style="fill:none;stroke:#000000;stroke-width:2.11232519;stroke-linecap:butt;stroke-linejoin:miter;stroke-miterlimit:9;stroke-dasharray:none;stroke-opacity:1" />
        </g>
      </g>
    </g>
  </g>
</svg>
